<?xml version="1.0" encoding="utf-8"?>
<!-- Generator: Adobe Illustrator 22.0.1, SVG Export Plug-In . SVG Version: 6.00 Build 0)  -->
<svg version="1.1" id="Ebene_1" xmlns="http://www.w3.org/2000/svg" xmlns:xlink="http://www.w3.org/1999/xlink" x="0px" y="0px"
	 viewBox="0 0 334 198.3" style="enable-background:new 0 0 334 198.3;" xml:space="preserve">
<g>
	<title>menu</title>
	<g id="dp_path003">
		<path d="M287.8,33.7H50.5c-3.6,0-6.5-2.9-6.5-6.5s2.9-6.5,6.5-6.5h237.3c3.6,0,6.5,2.9,6.5,6.5S291.4,33.7,287.8,33.7z"/>
	</g>
	<g id="dp_path003-2">
		<path d="M287.8,101.6H50.5c-3.6,0-6.5-2.9-6.5-6.5c0-3.6,2.9-6.5,6.5-6.5c0,0,0,0,0,0h237.3c3.6,0,6.5,2.9,6.5,6.5
			C294.3,98.7,291.4,101.6,287.8,101.6C287.8,101.6,287.8,101.6,287.8,101.6z"/>
	</g>
	<g id="dp_path003-3">
		<path d="M287.8,169.4H50.5c-3.6,0-6.5-2.9-6.5-6.5c0-3.6,2.9-6.5,6.5-6.5c0,0,0,0,0,0h237.3c3.6,0,6.5,2.9,6.5,6.5
			C294.3,166.5,291.4,169.4,287.8,169.4C287.8,169.4,287.8,169.4,287.8,169.4z"/>
	</g>
</g>
</svg>
